<svg width="709" height="506" viewBox="0 0 709 506" fill="none" xmlns="http://www.w3.org/2000/svg">
<g filter="url(#filter0_d_0_172)">
<rect x="7" y="7" width="657.638" height="410.833" rx="13.7008" fill="white"/>
</g>
<g filter="url(#filter1_d_0_172)">
<path d="M7 20.7008C7 13.134 13.1341 7 20.7008 7H650.937C658.504 7 664.638 13.134 664.638 20.7008V50.8222H7V20.7008Z" fill="#00252E"/>
</g>
<rect x="56.3228" y="20.6944" width="137.008" height="16.4333" rx="3.4252" fill="#E1E8EE"/>
<rect x="598.874" y="22.0639" width="21.9213" height="2.73889" rx="1.36944" fill="#D8D8D8"/>
<rect x="598.874" y="27.5417" width="21.9213" height="2.73889" rx="1.36944" fill="#D8D8D8"/>
<rect x="598.874" y="33.0194" width="21.9213" height="2.73889" rx="1.36944" fill="#D8D8D8"/>
<ellipse cx="89.2047" cy="134.358" rx="32.8819" ry="32.8667" fill="url(#paint0_linear_0_172)"/>
<rect x="160.449" y="109.708" width="78.7795" height="10.9556" rx="2.05512" fill="#E1E8EE"/>
<rect x="160.449" y="131.619" width="274.016" height="5.47778" rx="2.05512" fill="#E1E8EE"/>
<rect x="160.449" y="142.575" width="251.181" height="5.47778" rx="2.05512" fill="#E1E8EE"/>
<rect x="160.449" y="153.531" width="228.346" height="5.47778" rx="2.05512" fill="#E1E8EE"/>
<ellipse cx="475.567" cy="134.358" rx="8.22047" ry="8.21667" fill="#A7B9C8"/>
<ellipse cx="519.409" cy="134.358" rx="8.22047" ry="8.21667" fill="#A7B9C8"/>
<ellipse cx="497.488" cy="134.358" rx="8.22047" ry="8.21667" fill="#A7B9C8"/>
<ellipse cx="541.331" cy="134.358" rx="8.22047" ry="8.21667" fill="#A7B9C8"/>
<ellipse cx="563.252" cy="134.358" rx="8.22047" ry="8.21667" fill="#A7B9C8"/>
<ellipse cx="87.1496" cy="225.426" rx="30.8268" ry="30.8125" fill="url(#paint1_linear_0_172)"/>
<rect x="158.394" y="200.776" width="78.7795" height="10.9556" rx="2.05512" fill="#E1E8EE"/>
<rect x="158.394" y="222.688" width="274.016" height="5.47778" rx="2.05512" fill="#E1E8EE"/>
<rect x="158.394" y="233.643" width="251.181" height="5.47778" rx="2.05512" fill="#E1E8EE"/>
<rect x="158.394" y="244.599" width="228.346" height="5.47778" rx="2.05512" fill="#E1E8EE"/>
<ellipse cx="473.512" cy="225.426" rx="8.22047" ry="8.21667" fill="#A7B9C8"/>
<ellipse cx="517.354" cy="225.426" rx="8.22047" ry="8.21667" fill="#A7B9C8"/>
<ellipse cx="495.433" cy="225.426" rx="8.22047" ry="8.21667" fill="#A7B9C8"/>
<ellipse cx="87.1496" cy="323.342" rx="30.8268" ry="30.8125" fill="url(#paint2_linear_0_172)"/>
<rect x="158.394" y="298.692" width="78.7795" height="10.9556" rx="2.05512" fill="#E1E8EE"/>
<rect x="158.394" y="320.603" width="274.016" height="5.47778" rx="2.05512" fill="#E1E8EE"/>
<rect x="158.394" y="331.558" width="251.181" height="5.47778" rx="2.05512" fill="#E1E8EE"/>
<rect x="158.394" y="342.514" width="228.346" height="5.47778" rx="2.05512" fill="#E1E8EE"/>
<ellipse cx="473.512" cy="323.342" rx="8.22047" ry="8.21667" fill="#A7B9C8"/>
<ellipse cx="517.354" cy="323.342" rx="8.22047" ry="8.21667" fill="#A7B9C8"/>
<ellipse cx="495.433" cy="323.342" rx="8.22047" ry="8.21667" fill="#A7B9C8"/>
<ellipse cx="539.276" cy="323.342" rx="8.22047" ry="8.21667" fill="#A7B9C8"/>
<g filter="url(#filter2_d_0_172)">
<path fill-rule="evenodd" clip-rule="evenodd" d="M483.787 161.114C483.787 154.657 489.022 149.422 495.479 149.422H691.309C697.766 149.422 703 154.657 703 161.114V488.309C703 494.766 697.766 500 691.309 500H495.479C489.022 500 483.787 494.766 483.787 488.309V161.114Z" fill="white"/>
</g>
<g filter="url(#filter3_d_0_172)">
<path fill-rule="evenodd" clip-rule="evenodd" d="M483.787 161.114C483.787 154.657 489.022 149.422 495.479 149.422H691.309C697.766 149.422 703 154.657 703 161.114V186.817H483.787V161.114Z" fill="#00252E"/>
</g>
<rect x="505.8" y="162.277" width="71.2441" height="14.0231" rx="2.92283" fill="#E1E8EE"/>
<rect x="660.911" y="163.445" width="18.7061" height="2.33719" rx="1.16859" fill="#D8D8D8"/>
<rect x="660.911" y="168.12" width="18.7061" height="2.33719" rx="1.16859" fill="#D8D8D8"/>
<rect x="660.911" y="172.794" width="18.7061" height="2.33719" rx="1.16859" fill="#D8D8D8"/>
<ellipse cx="515.984" cy="233.643" rx="10.2756" ry="10.2708" fill="url(#paint3_linear_0_172)"/>
<rect x="537.22" y="225.426" width="39.3898" height="3.65185" rx="0.62997" fill="#E1E8EE"/>
<rect x="537.22" y="232.73" width="137.008" height="1.82593" rx="0.62997" fill="#E1E8EE"/>
<rect x="537.22" y="236.382" width="125.591" height="1.82593" rx="0.62997" fill="#E1E8EE"/>
<rect x="537.22" y="240.034" width="114.173" height="1.82593" rx="0.62997" fill="#E1E8EE"/>
<ellipse cx="515.984" cy="328.135" rx="10.2756" ry="10.2708" fill="url(#paint4_linear_0_172)"/>
<rect x="537.22" y="319.918" width="39.3898" height="3.65185" rx="0.62997" fill="#E1E8EE"/>
<rect x="537.22" y="327.222" width="137.008" height="1.82593" rx="0.62997" fill="#E1E8EE"/>
<rect x="537.22" y="330.874" width="125.591" height="1.82593" rx="0.62997" fill="#E1E8EE"/>
<rect x="537.22" y="334.525" width="114.173" height="1.82593" rx="0.62997" fill="#E1E8EE"/>
<rect x="537.22" y="256.924" width="39.3898" height="3.65185" rx="0.62997" fill="#E1E8EE"/>
<rect x="537.22" y="264.227" width="137.008" height="1.82593" rx="0.62997" fill="#E1E8EE"/>
<rect x="537.22" y="267.879" width="125.591" height="1.82593" rx="0.62997" fill="#E1E8EE"/>
<rect x="537.22" y="271.531" width="114.173" height="1.82593" rx="0.62997" fill="#E1E8EE"/>
<ellipse cx="515.984" cy="265.14" rx="10.2756" ry="10.2708" fill="url(#paint5_linear_0_172)"/>
<rect x="537.22" y="351.415" width="39.3898" height="3.65185" rx="0.62997" fill="#E1E8EE"/>
<rect x="537.22" y="358.719" width="137.008" height="1.82593" rx="0.62997" fill="#E1E8EE"/>
<rect x="537.22" y="362.371" width="125.591" height="1.82593" rx="0.62997" fill="#E1E8EE"/>
<rect x="537.22" y="366.023" width="114.173" height="1.82593" rx="0.62997" fill="#E1E8EE"/>
<ellipse cx="515.984" cy="359.632" rx="10.2756" ry="10.2708" fill="url(#paint6_linear_0_172)"/>
<rect x="537.22" y="288.421" width="39.3898" height="3.65185" rx="0.62997" fill="#E1E8EE"/>
<rect x="537.22" y="295.725" width="137.008" height="1.82593" rx="0.62997" fill="#E1E8EE"/>
<rect x="537.22" y="299.376" width="125.591" height="1.82593" rx="0.62997" fill="#E1E8EE"/>
<rect x="537.22" y="303.028" width="114.173" height="1.82593" rx="0.62997" fill="#E1E8EE"/>
<ellipse cx="515.984" cy="296.638" rx="10.2756" ry="10.2708" fill="url(#paint7_linear_0_172)"/>
<rect x="537.22" y="382.913" width="39.3898" height="3.65185" rx="0.62997" fill="#E1E8EE"/>
<rect x="537.22" y="390.216" width="137.008" height="1.82593" rx="0.62997" fill="#E1E8EE"/>
<rect x="537.22" y="393.868" width="125.591" height="1.82593" rx="0.62997" fill="#E1E8EE"/>
<rect x="537.22" y="397.52" width="114.173" height="1.82593" rx="0.62997" fill="#E1E8EE"/>
<ellipse cx="515.984" cy="391.129" rx="10.2756" ry="10.2708" fill="url(#paint8_linear_0_172)"/>
<ellipse cx="515.984" cy="422.626" rx="10.2756" ry="10.2708" fill="url(#paint9_linear_0_172)"/>
<rect x="537.22" y="414.41" width="39.3898" height="3.65185" rx="0.62997" fill="#E1E8EE"/>
<rect x="537.22" y="421.713" width="137.008" height="1.82593" rx="0.62997" fill="#E1E8EE"/>
<rect x="537.22" y="425.365" width="125.591" height="1.82593" rx="0.62997" fill="#E1E8EE"/>
<rect x="537.22" y="429.017" width="114.173" height="1.82593" rx="0.62997" fill="#E1E8EE"/>
<rect x="537.22" y="445.907" width="39.3898" height="3.65185" rx="0.62997" fill="#E1E8EE"/>
<rect x="537.22" y="453.211" width="137.008" height="1.82593" rx="0.62997" fill="#E1E8EE"/>
<rect x="537.22" y="456.862" width="125.591" height="1.82593" rx="0.62997" fill="#E1E8EE"/>
<rect x="537.22" y="460.514" width="114.173" height="1.82593" rx="0.62997" fill="#E1E8EE"/>
<ellipse cx="515.984" cy="454.124" rx="10.2756" ry="10.2708" fill="url(#paint10_linear_0_172)"/>
<defs>
<filter id="filter0_d_0_172" x="0" y="0" width="671.638" height="424.833" filterUnits="userSpaceOnUse" color-interpolation-filters="sRGB">
<feFlood flood-opacity="0" result="BackgroundImageFix"/>
<feColorMatrix in="SourceAlpha" type="matrix" values="0 0 0 0 0 0 0 0 0 0 0 0 0 0 0 0 0 0 127 0" result="hardAlpha"/>
<feOffset/>
<feGaussianBlur stdDeviation="3.5"/>
<feColorMatrix type="matrix" values="0 0 0 0 0 0 0 0 0 0.145098 0 0 0 0 0.180392 0 0 0 0.181839 0"/>
<feBlend mode="normal" in2="BackgroundImageFix" result="effect1_dropShadow_0_172"/>
<feBlend mode="normal" in="SourceGraphic" in2="effect1_dropShadow_0_172" result="shape"/>
</filter>
<filter id="filter1_d_0_172" x="0" y="0" width="671.638" height="57.8222" filterUnits="userSpaceOnUse" color-interpolation-filters="sRGB">
<feFlood flood-opacity="0" result="BackgroundImageFix"/>
<feColorMatrix in="SourceAlpha" type="matrix" values="0 0 0 0 0 0 0 0 0 0 0 0 0 0 0 0 0 0 127 0" result="hardAlpha"/>
<feOffset/>
<feGaussianBlur stdDeviation="3.5"/>
<feColorMatrix type="matrix" values="0 0 0 0 0 0 0 0 0 0.145098 0 0 0 0 0.180392 0 0 0 0.181839 0"/>
<feBlend mode="normal" in2="BackgroundImageFix" result="effect1_dropShadow_0_172"/>
<feBlend mode="normal" in="SourceGraphic" in2="effect1_dropShadow_0_172" result="shape"/>
</filter>
<filter id="filter2_d_0_172" x="477.787" y="143.422" width="231.213" height="362.578" filterUnits="userSpaceOnUse" color-interpolation-filters="sRGB">
<feFlood flood-opacity="0" result="BackgroundImageFix"/>
<feColorMatrix in="SourceAlpha" type="matrix" values="0 0 0 0 0 0 0 0 0 0 0 0 0 0 0 0 0 0 127 0" result="hardAlpha"/>
<feOffset/>
<feGaussianBlur stdDeviation="3"/>
<feColorMatrix type="matrix" values="0 0 0 0 0 0 0 0 0 0.145098 0 0 0 0 0.180392 0 0 0 0.181839 0"/>
<feBlend mode="normal" in2="BackgroundImageFix" result="effect1_dropShadow_0_172"/>
<feBlend mode="normal" in="SourceGraphic" in2="effect1_dropShadow_0_172" result="shape"/>
</filter>
<filter id="filter3_d_0_172" x="477.787" y="143.422" width="231.213" height="49.395" filterUnits="userSpaceOnUse" color-interpolation-filters="sRGB">
<feFlood flood-opacity="0" result="BackgroundImageFix"/>
<feColorMatrix in="SourceAlpha" type="matrix" values="0 0 0 0 0 0 0 0 0 0 0 0 0 0 0 0 0 0 127 0" result="hardAlpha"/>
<feOffset/>
<feGaussianBlur stdDeviation="3"/>
<feColorMatrix type="matrix" values="0 0 0 0 0 0 0 0 0 0.145098 0 0 0 0 0.180392 0 0 0 0.181839 0"/>
<feBlend mode="normal" in2="BackgroundImageFix" result="effect1_dropShadow_0_172"/>
<feBlend mode="normal" in="SourceGraphic" in2="effect1_dropShadow_0_172" result="shape"/>
</filter>
<linearGradient id="paint0_linear_0_172" x1="19.4475" y1="106.902" x2="59.6532" y2="200.104" gradientUnits="userSpaceOnUse">
<stop stop-color="#FAD961"/>
<stop offset="1" stop-color="#FF52C1"/>
</linearGradient>
<linearGradient id="paint1_linear_0_172" x1="56.3228" y1="194.614" x2="56.3228" y2="256.239" gradientUnits="userSpaceOnUse">
<stop stop-color="#00C7FA"/>
<stop offset="1" stop-color="#007DFA"/>
</linearGradient>
<linearGradient id="paint2_linear_0_172" x1="39.8928" y1="311.395" x2="77.6147" y2="379.963" gradientUnits="userSpaceOnUse">
<stop stop-color="#FF52C1"/>
<stop offset="1" stop-color="#9952FF"/>
</linearGradient>
<linearGradient id="paint3_linear_0_172" x1="494.185" y1="225.063" x2="506.749" y2="254.189" gradientUnits="userSpaceOnUse">
<stop stop-color="#FAD961"/>
<stop offset="1" stop-color="#FF52C1"/>
</linearGradient>
<linearGradient id="paint4_linear_0_172" x1="494.185" y1="319.555" x2="506.749" y2="348.68" gradientUnits="userSpaceOnUse">
<stop stop-color="#FAD961"/>
<stop offset="1" stop-color="#FF52C1"/>
</linearGradient>
<linearGradient id="paint5_linear_0_172" x1="505.709" y1="254.869" x2="505.709" y2="275.411" gradientUnits="userSpaceOnUse">
<stop stop-color="#00C7FA"/>
<stop offset="1" stop-color="#007DFA"/>
</linearGradient>
<linearGradient id="paint6_linear_0_172" x1="505.709" y1="349.361" x2="505.709" y2="369.903" gradientUnits="userSpaceOnUse">
<stop stop-color="#00C7FA"/>
<stop offset="1" stop-color="#007DFA"/>
</linearGradient>
<linearGradient id="paint7_linear_0_172" x1="500.232" y1="292.655" x2="512.806" y2="315.511" gradientUnits="userSpaceOnUse">
<stop stop-color="#FF52C1"/>
<stop offset="1" stop-color="#9952FF"/>
</linearGradient>
<linearGradient id="paint8_linear_0_172" x1="500.232" y1="387.147" x2="512.806" y2="410.003" gradientUnits="userSpaceOnUse">
<stop stop-color="#FF52C1"/>
<stop offset="1" stop-color="#9952FF"/>
</linearGradient>
<linearGradient id="paint9_linear_0_172" x1="494.185" y1="414.046" x2="506.749" y2="443.172" gradientUnits="userSpaceOnUse">
<stop stop-color="#FAD961"/>
<stop offset="1" stop-color="#FF52C1"/>
</linearGradient>
<linearGradient id="paint10_linear_0_172" x1="505.709" y1="443.853" x2="505.709" y2="464.394" gradientUnits="userSpaceOnUse">
<stop stop-color="#00C7FA"/>
<stop offset="1" stop-color="#007DFA"/>
</linearGradient>
</defs>
</svg>
